<?xml version="1.0" encoding="UTF-8"?>
<svg id="Layer_1" xmlns="http://www.w3.org/2000/svg" version="1.1" xmlns:svgjs="http://svgjs.dev/svgjs" viewBox="0 0 500 500">
  <!-- Generator: Adobe Illustrator 29.8.1, SVG Export Plug-In . SVG Version: 2.1.1 Build 2)  -->
  <defs>
    <style>
      .st0 {
        fill: #fff;
      }
    </style>
  </defs>
  <rect class="st0" x="0" y="0" width="500" height="500" rx="250" ry="250"/>
  <path d="M115.71,222.28c8.77-3.98,17.36-1.26,26.27-5.96,23.42-12.35,10.68-31.61,23.52-46.81,15.02-17.78,41.88-13.37,51.13,7.84,3.62,8.3,1.21,16.44,5.29,24.89,11.07,22.93,43.96,23.42,55.82.92,7.07-13.42-.78-24.45,14.03-37.37,24.5-21.37,60.72,7.41,46.99,35.52-12.36,25.33-34.16,10.87-49.66,26.37-12.2,12.2-5.55,24.83-12.99,37.24-13.13,21.89-43.74,19.66-53.92-3.69-3.62-8.3-1.21-16.44-5.29-24.89-12.65-26.2-51.84-22.05-58.51,6.45-.84,3.6-.33,7.6-.9,11.06-4.35,26.64-37.11,35.78-53.97,14.29-12.33-15.71-5.67-37.78,12.19-45.87ZM164.81,329.45c25.44,32.41,72.07-6.77,47.56-36.87-25.51-31.34-71.21,6.75-47.56,36.87ZM348.63,231.05c-24.51,30.11,22.13,69.28,47.56,36.87,23.64-30.13-22.05-68.21-47.56-36.87ZM287.61,292.57c-24.38,30.06,21.78,69.22,47.57,36.87,23.7-29.72-22.03-68.36-47.57-36.87Z"/>
</svg>